# xmcd CD database file
#
# Track frame offsets:
#	150
#	22295
#	43255
#
# Disc length: 900 seconds
#
# Revision: 2
# Processed by: cddbd v1.5.2PL0 Copyright (c) Steve Scherf et al.
# Submitted via: CDex 1.70beta2
#
DISCID=26038203
DTITLE=12012 - depression sign -完全盤- [Disc 1]
DYEAR=2005
DGENRE=visual rock
TTITLE0=僕ノ殻カラ
TTITLE1=密閉サレタ日
TTITLE2=興梠 ～こおろぎ～
EXTD=YEAR: 2005
EXTT0=
EXTT1=
EXTT2=
PLAYORDER=
